<?xml version="1.0" standalone="no"?>
<!DOCTYPE svg PUBLIC "-//W3C//DTD SVG 20010904//EN"
 "http://www.w3.org/TR/2001/REC-SVG-20010904/DTD/svg10.dtd">
<svg version="1.0" xmlns="http://www.w3.org/2000/svg"
 width="852.000000pt" height="852.000000pt" viewBox="0 0 852.000000 852.000000"
 preserveAspectRatio="xMidYMid meet">
<metadata>
Created by potrace 1.14, written by Peter Selinger 2001-2017
</metadata>
<g transform="translate(0.000000,852.000000) scale(0.100000,-0.100000)"
fill="#000000" stroke="none">
<path d="M4108 6575 c-57 -15 -54 -13 -264 -200 -182 -161 -321 -296 -369
-359 l-31 -39 -44 28 c-58 36 -218 111 -266 124 -22 6 -77 13 -124 17 -63 4
-90 11 -105 24 -48 45 -156 64 -220 40 -14 -5 -47 -32 -73 -58 -137 -141 -183
-381 -183 -960 l0 -343 -54 49 c-123 112 -229 174 -368 212 -93 26 -151 26
-176 1 -11 -11 -41 -23 -67 -27 -77 -11 -101 -49 -137 -222 -18 -88 -14 -517
6 -689 29 -241 109 -665 158 -838 154 -543 248 -803 386 -1065 236 -449 585
-798 942 -939 257 -102 388 -131 791 -171 135 -13 597 -13 714 0 274 31 453
66 640 126 358 113 626 275 896 545 466 465 649 918 805 1996 87 606 92 1089
14 1333 -40 121 -114 221 -177 237 -44 11 -143 -16 -236 -65 -71 -37 -111 -68
-192 -147 l-102 -100 -11 110 c-41 404 -95 582 -235 775 -81 111 -178 215
-215 228 -75 28 -207 9 -265 -38 -35 -27 -38 -28 -81 -14 -39 11 -52 11 -97
-2 -66 -19 -156 -69 -237 -130 -71 -53 -57 -58 -146 51 -98 121 -251 253 -396
340 -72 44 -152 99 -178 122 -26 23 -59 47 -75 52 -37 15 -170 12 -228 -4z
m55 -81 c3 -4 -3 -24 -14 -46 -24 -47 -276 -308 -298 -308 -9 0 -65 -42 -125
-93 -141 -120 -184 -152 -193 -144 -16 17 134 171 317 327 47 40 130 117 186
171 97 95 113 107 127 93z m183 -61 c43 -32 124 -87 181 -123 186 -117 283
-202 380 -329 35 -47 66 -95 69 -107 7 -27 -9 -60 -36 -74 -16 -9 -26 0 -77
67 -112 151 -262 288 -478 436 -66 45 -135 129 -135 163 0 13 4 24 9 24 5 0
44 -26 87 -57z m-65 -172 c20 -16 24 -30 27 -95 2 -42 8 -76 13 -76 6 0 7 27
3 65 -6 57 -5 65 9 59 9 -3 28 -21 43 -41 15 -19 32 -32 40 -29 9 3 11 0 7
-11 -4 -11 -2 -14 5 -9 7 4 12 1 12 -7 0 -8 7 -17 15 -21 8 -3 12 -12 9 -19
-6 -17 44 -80 57 -72 5 4 6 -2 2 -12 -3 -10 -2 -15 2 -10 11 10 55 -81 55
-114 0 -15 -7 -44 -15 -65 l-16 -39 21 25 c21 24 22 24 17 3 -4 -16 1 -24 15
-29 18 -5 20 -12 15 -53 -7 -56 -61 -185 -93 -224 -13 -16 -22 -33 -19 -38 4
-5 -1 -6 -10 -3 -13 5 -15 2 -9 -20 4 -16 2 -26 -5 -26 -6 0 -11 6 -11 13 0 6
-7 1 -15 -13 -25 -44 -28 -51 -21 -58 8 -8 27 19 20 29 -2 4 0 10 6 14 17 11
11 -28 -9 -59 l-20 -30 -5 25 c-2 13 -10 53 -17 89 -6 36 -38 160 -70 277 -57
211 -83 347 -95 508 -7 91 -3 99 37 66z m-87 -78 c8 -74 51 -286 76 -380 44
-163 61 -262 52 -296 -6 -21 -5 -58 4 -108 20 -116 24 -158 15 -163 -4 -3 -15
36 -25 87 -9 51 -25 124 -36 162 l-20 70 5 -52 c5 -52 5 -52 -49 -107 -85 -86
-90 -86 -120 -20 -14 31 -26 66 -26 78 0 12 -4 26 -9 32 -5 5 -17 47 -26 94
-9 47 -29 139 -45 206 -16 66 -30 146 -32 177 -2 48 -6 56 -20 51 -9 -2 -19 0
-23 5 -3 6 0 8 8 5 8 -3 17 2 20 10 4 11 1 13 -10 9 -24 -9 38 65 91 110 25
20 48 37 52 37 4 0 15 7 24 15 15 14 19 9 38 -57 12 -40 26 -80 31 -88 18 -26
23 -3 12 56 -13 70 -14 124 -2 124 4 0 11 -26 15 -57z m-1349 -103 c36 -22 48
-60 20 -60 -22 0 -86 28 -107 47 -10 9 -18 23 -18 31 0 20 60 10 105 -18z
m2863 -5 c2 -13 -10 -30 -33 -48 -34 -27 -36 -27 -66 -12 -39 21 -34 34 21 63
52 26 74 25 78 -3z m182 -106 c105 -121 151 -217 199 -409 48 -196 85 -534 64
-588 -7 -19 -12 -5 -27 75 -27 153 -67 335 -79 363 -6 14 -11 30 -12 35 -4 31
-19 84 -32 109 -19 37 -29 22 -32 -46 -1 -28 -4 -54 -6 -59 -3 -4 -1 -10 5
-14 16 -10 12 -65 -5 -65 -8 0 -15 6 -15 13 0 9 -3 9 -9 -1 -6 -10 -10 -6 -15
15 -4 15 -29 87 -57 160 -27 72 -49 141 -49 152 0 12 -5 21 -11 21 -5 0 -9 8
-8 18 3 36 -1 52 -16 52 -9 0 -15 10 -15 26 0 14 -4 23 -10 19 -5 -3 -10 0
-10 7 0 8 -9 21 -20 31 -27 22 -25 43 5 79 14 16 25 36 25 44 0 8 7 29 16 47
l17 31 24 -29 c14 -17 46 -55 73 -86z m-1390 91 c0 -5 -4 -10 -10 -10 -5 0
-10 5 -10 10 0 6 5 10 10 10 6 0 10 -4 10 -10z m-1797 -39 c14 -17 48 -44 76
-61 28 -18 51 -38 51 -46 0 -8 -20 -58 -44 -111 -81 -181 -138 -423 -167 -698
-15 -147 -7 -578 15 -810 22 -225 75 -574 122 -790 31 -146 44 -243 43 -340
-1 -154 -13 -155 -32 -4 -9 74 -39 249 -67 389 -64 322 -126 709 -139 865 -19
226 -33 710 -27 900 8 225 21 366 47 493 19 93 74 242 89 242 5 0 19 -13 33
-29z m2755 15 c33 -17 117 -105 159 -167 72 -105 170 -329 232 -529 43 -140
93 -511 110 -810 11 -193 -2 -553 -23 -685 -13 -77 -69 -338 -98 -457 -13 -56
-27 -46 -25 18 1 34 4 49 8 37 5 -12 8 -5 8 23 1 23 4 76 8 119 5 58 3 76 -5
71 -7 -4 -12 -14 -12 -22 0 -9 -7 -22 -15 -30 -17 -17 -20 -70 -5 -79 6 -3 10
-16 10 -28 0 -18 -2 -19 -10 -7 -6 9 -10 10 -10 3 0 -6 -3 -19 -7 -29 -4 -12
-3 -15 5 -10 8 5 10 2 5 -10 -7 -20 -17 -6 -27 41 -5 24 -4 27 5 15 9 -13 10
-12 5 3 -3 10 -7 33 -7 50 l-2 32 -7 -35 c-7 -34 -7 -34 -9 13 0 27 -5 46 -10
43 -13 -8 -111 171 -105 191 5 14 4 15 -4 4 -8 -11 -13 -8 -28 14 -23 36 -24
54 -8 150 38 236 42 582 9 825 -17 128 -48 252 -70 283 -19 27 -19 26 5 -69
46 -179 54 -348 25 -513 -22 -125 -26 -132 -73 -125 -43 7 -140 42 -200 73
-61 31 -230 148 -277 192 -22 20 -72 63 -111 95 -39 33 -88 74 -110 91 -21 18
-42 33 -46 33 -14 0 -8 55 8 78 9 13 14 26 10 29 -3 3 -15 -15 -28 -41 -12
-25 -25 -46 -28 -46 -4 0 -17 -22 -30 -50 -13 -27 -27 -50 -31 -50 -19 0 -97
40 -101 52 -12 33 66 258 138 399 57 114 186 319 269 429 155 205 302 339 418
381 63 22 53 22 85 5z m-2315 -36 c251 -85 556 -350 830 -722 67 -91 209 -332
233 -395 19 -50 19 -51 -49 -87 -44 -23 -51 -24 -71 -11 -12 8 -58 69 -101
134 -44 66 -81 118 -83 116 -2 -2 5 -16 17 -31 11 -15 21 -31 21 -35 0 -5 13
-27 29 -50 18 -24 27 -47 24 -56 -4 -10 -2 -14 4 -10 6 4 17 0 24 -9 16 -19
-3 -37 -111 -109 -47 -31 -149 -124 -271 -245 -175 -174 -331 -321 -348 -327
-6 -3 -51 69 -97 154 -13 23 -34 71 -48 105 -98 253 -118 310 -136 393 -40
183 -70 526 -70 810 0 190 -1 198 -17 175 -9 -14 -20 -27 -23 -30 -4 -3 -12
-14 -18 -25 -10 -19 -11 -19 -18 -2 -8 21 85 228 119 265 27 29 51 28 160 -8z
m2851 -470 c-6 -6 -10 -2 -11 12 -2 16 1 18 10 9 7 -7 8 -14 1 -21z m13 -42
c-3 -8 -6 -5 -6 6 -1 11 2 17 5 13 3 -3 4 -12 1 -19z m773 -208 c0 -26 -4 -30
-27 -30 -16 0 -44 -10 -63 -22 -32 -21 -33 -23 -12 -26 12 -2 22 -8 22 -14 0
-5 6 -8 14 -5 8 3 16 1 18 -4 6 -19 35 2 44 32 l9 29 32 -19 c48 -30 62 -60
84 -178 59 -324 21 -863 -112 -1598 -22 -121 -48 -254 -59 -295 -10 -41 -28
-115 -40 -163 -25 -103 -80 -261 -138 -397 -129 -304 -375 -624 -637 -831
-107 -85 -307 -204 -425 -255 -3 -1 -10 4 -17 11 -10 10 -9 14 3 19 10 4 13 2
8 -7 -4 -6 60 56 143 138 128 128 163 172 248 300 150 228 224 361 288 515 50
121 134 396 142 470 1 8 7 33 13 55 24 86 71 440 60 450 -7 7 -9 6 -4 -2 8
-15 -13 -113 -25 -113 -9 0 -13 21 -10 54 0 10 -3 24 -9 31 -6 7 -7 20 -4 30
4 9 1 20 -5 25 -16 9 -4 100 14 107 9 3 12 17 8 41 -3 24 -1 32 4 24 7 -9 10
-2 11 20 1 38 5 68 16 121 6 27 13 37 23 33 10 -4 12 -2 4 11 -6 12 -3 34 11
73 12 30 24 57 28 60 10 8 21 42 11 35 -5 -3 -1 17 9 45 10 28 14 48 9 44 -12
-7 -11 3 2 28 9 17 13 18 20 7 6 -9 7 -1 4 21 -4 27 -3 30 4 15 10 -22 11 -21
16 55 3 58 22 125 39 142 15 16 32 66 41 126 4 23 10 40 14 37 5 -2 9 8 9 23
3 59 15 124 21 113 4 -6 17 18 28 54 12 36 17 65 12 65 -10 0 -5 47 10 99 6
19 9 36 7 38 -4 4 -129 -323 -158 -412 -11 -33 -28 -76 -38 -95 -23 -46 -164
-486 -189 -593 -11 -45 -30 -128 -42 -184 -12 -56 -25 -100 -28 -99 -3 2 -7
-31 -9 -73 -2 -42 -5 -85 -6 -96 -2 -11 -4 -26 -5 -33 0 -7 -5 -11 -10 -8 -5
4 -12 -13 -16 -36 -32 -214 -36 -232 -79 -303 -23 -38 -45 -78 -49 -87 -4 -11
-12 -15 -23 -11 -14 5 -15 15 -9 72 5 36 9 147 11 246 2 200 20 454 34 499 6
16 10 57 10 91 0 34 5 87 10 116 6 30 22 173 35 319 37 395 37 394 45 405 4 6
15 37 24 69 18 61 36 95 70 134 11 12 15 22 9 22 -6 0 -18 -12 -28 -26 -34
-52 -155 -161 -155 -139 0 21 119 178 208 273 154 165 251 246 357 298 50 24
96 44 103 44 7 0 12 -13 12 -30z m-4940 -258 c0 -5 -11 -19 -26 -33 -23 -21
-23 -25 -9 -35 14 -10 21 -8 42 9 14 12 29 32 34 45 9 25 19 24 109 -5 154
-51 350 -205 404 -318 14 -31 26 -60 26 -65 0 -19 -16 -10 -33 18 -9 15 -26
38 -38 52 -21 24 -21 25 -38 5 -13 -16 -34 -30 -79 -51 -2 -1 34 -118 47 -149
27 -64 31 -80 31 -120 0 -24 4 -45 9 -47 11 -3 16 -50 13 -115 -2 -41 -3 -42
-32 -39 -25 3 -28 1 -20 -15 6 -10 9 -30 9 -46 -1 -26 -2 -26 -10 7 -4 19 -11
47 -15 63 -3 15 -10 27 -14 27 -4 0 -10 10 -13 22 -4 12 -9 19 -12 16 -4 -3
-1 -16 5 -28 6 -12 22 -56 34 -98 13 -43 27 -75 32 -72 5 3 10 -7 12 -22 2
-14 10 -32 18 -38 8 -7 14 -18 14 -25 0 -7 6 -15 14 -18 11 -4 14 -23 14 -72
-1 -36 -5 -68 -10 -71 -5 -3 -6 7 -3 23 5 21 4 24 -4 13 -9 -13 -11 -13 -11 3
0 9 -9 34 -21 55 -14 25 -19 29 -14 12 35 -132 30 -138 -15 -17 -34 92 -128
276 -214 417 -24 41 -57 98 -72 127 -32 60 -42 64 -18 7 l16 -39 -27 28 c-25
24 -27 30 -16 53 8 19 8 24 -1 18 -8 -5 -9 -2 -5 10 4 10 3 15 -4 11 -5 -4 -7
-15 -4 -26 11 -34 -4 -20 -26 24 l-22 42 23 -20 c22 -19 21 -18 -4 33 -15 30
-30 51 -33 48 -3 -3 0 -14 8 -23 13 -16 12 -17 -4 -4 -10 8 -16 20 -13 28 3 7
-3 22 -14 33 -25 25 -25 22 -1 -32 47 -109 84 -184 115 -232 46 -71 153 -274
199 -376 94 -208 126 -337 157 -645 49 -491 83 -720 135 -908 85 -310 310
-629 586 -829 38 -27 76 -74 67 -83 -6 -7 -92 41 -178 98 -154 103 -272 201
-366 305 -53 59 -116 128 -140 153 -58 62 -169 241 -226 364 -80 174 -198 505
-253 710 -116 435 -161 653 -211 1025 -25 184 -25 571 0 660 9 36 20 80 23 98
3 18 15 39 26 47 23 16 47 20 47 7z m2467 -230 c-45 -36 -167 -169 -167 -182
0 -6 2 -10 5 -10 9 0 58 32 82 53 21 19 22 19 52 -4 27 -20 36 -21 88 -13 32
4 79 8 105 8 25 1 46 2 45 3 -1 1 -40 41 -87 88 -48 48 -77 85 -68 85 8 0 21
-7 28 -15 7 -8 18 -15 24 -15 6 0 38 -21 71 -46 33 -25 98 -72 145 -104 123
-83 247 -185 390 -319 349 -326 539 -589 645 -892 54 -155 66 -218 75 -389 19
-375 -59 -655 -283 -1018 -100 -163 -198 -292 -313 -411 -120 -125 -203 -190
-314 -242 -47 -22 -98 -47 -115 -56 -16 -8 52 65 151 163 119 117 199 205 232
254 71 108 134 238 134 277 0 18 4 33 9 33 5 0 9 8 9 17 0 14 -3 13 -21 -5
-14 -15 -18 -30 -14 -45 3 -12 3 -17 -2 -12 -4 6 -14 11 -22 13 -10 2 -12 -4
-7 -25 4 -15 3 -23 -1 -17 -13 18 -53 -2 -53 -27 0 -17 -4 -20 -22 -16 -13 3
-31 0 -41 -7 -15 -12 -16 -15 -2 -26 12 -10 13 -16 4 -26 -9 -11 -7 -15 5 -20
23 -9 20 -23 -4 -17 -11 3 -20 9 -20 14 0 5 -9 9 -20 9 -12 0 -20 -7 -20 -18
0 -10 -10 -26 -21 -36 -16 -13 -18 -21 -10 -29 15 -15 14 -27 -4 -27 -8 0 -15
7 -15 15 0 8 -4 15 -10 15 -5 0 -10 -7 -10 -15 0 -18 34 -37 54 -29 9 3 16 2
16 -2 0 -14 -104 -82 -136 -89 -22 -5 -25 -4 -14 4 12 9 11 11 -7 11 -13 0
-23 -5 -23 -11 0 -7 -11 -9 -30 -5 -22 4 -30 2 -30 -9 0 -7 8 -15 18 -17 46
-11 -108 -30 -188 -24 -127 11 -126 10 -129 62 -1 34 2 44 14 44 11 0 15 11
15 43 0 29 -3 38 -9 28 -14 -21 -25 30 -18 75 7 44 0 64 -24 64 -14 0 -19 -7
-18 -27 0 -25 1 -26 10 -8 l9 20 -3 -20 c-1 -11 -7 -19 -12 -17 -6 1 -13 -12
-17 -30 -4 -18 -4 -8 -1 22 3 30 7 77 9 103 2 26 6 52 9 57 3 4 1 10 -4 12 -6
2 -6 21 -1 49 5 25 11 97 14 160 l5 114 -9 -90 c-5 -49 -14 -115 -20 -145 -5
-30 -19 -129 -29 -220 -29 -248 -71 -569 -79 -608 -9 -44 -28 -52 -36 -15 -16
78 -28 460 -29 898 -2 481 1 553 39 1045 28 353 33 453 32 620 l-1 165 -14
-125 c-7 -69 -14 -189 -16 -266 -1 -78 -5 -137 -9 -131 -3 5 -6 -1 -7 -14 0
-13 -5 -64 -10 -114 -31 -309 -49 -692 -56 -1180 -3 -248 7 -618 20 -740 12
-115 -5 -67 -25 72 -11 70 -24 143 -29 161 -6 18 -13 65 -16 105 -4 40 -11 95
-16 122 -5 28 -16 119 -24 204 -8 84 -17 156 -20 159 -6 6 -9 -50 -7 -128 1
-42 -1 -49 -7 -30 -5 14 -9 40 -10 58 -1 18 -5 31 -9 28 -4 -3 -7 15 -7 40 2
55 -11 58 -20 3 -7 -43 -53 -103 -62 -81 -5 14 -83 17 -83 3 0 -5 -21 -11 -47
-13 -44 -4 -51 -1 -80 29 -18 18 -33 38 -33 43 0 6 -21 33 -47 60 -84 89 -179
298 -214 470 -15 73 -20 212 -7 204 4 -3 8 7 8 21 0 18 4 24 13 19 10 -6 10
-4 0 7 -7 7 -13 20 -13 28 0 14 2 14 11 1 9 -13 10 -13 6 2 -6 19 13 78 25 78
4 0 8 10 8 23 0 38 -64 -98 -108 -228 -58 -175 -77 -296 -76 -500 2 -250 44
-446 123 -575 23 -36 55 -90 72 -122 17 -31 62 -90 100 -131 74 -80 231 -218
289 -255 19 -12 31 -22 26 -22 -30 0 -167 50 -259 96 -104 53 -140 76 -258
169 -115 89 -340 377 -402 515 -123 270 -164 435 -173 690 -6 169 7 293 48
444 27 103 160 365 260 516 155 233 468 581 659 735 41 33 101 84 134 113 33
30 105 85 160 123 55 38 122 87 148 109 27 22 56 40 64 40 10 0 2 -11 -20 -28z
m2360 -44 c-3 -8 -6 -5 -6 6 -1 11 2 17 5 13 3 -3 4 -12 1 -19z m-16 -45 c-12
-20 -14 -14 -5 12 4 9 9 14 11 11 3 -2 0 -13 -6 -23z m-4304 -535 c-2 -13 -4
-3 -4 22 0 25 2 35 4 23 2 -13 2 -33 0 -45z m-40 -30 c-3 -7 -5 -2 -5 12 0 14
2 19 5 13 2 -7 2 -19 0 -25z m3500 -600 c-3 -8 -6 -5 -6 6 -1 11 2 17 5 13 3
-3 4 -12 1 -19z m510 -280 c-3 -8 -6 -5 -6 6 -1 11 2 17 5 13 3 -3 4 -12 1
-19z m15 -50 c-6 -6 -7 0 -4 19 5 21 7 23 10 9 2 -10 0 -22 -6 -28z m-16 -160
c4 -7 3 -8 -4 -4 -7 4 -12 2 -12 -5 0 -7 -3 -10 -6 -6 -6 5 3 27 11 27 2 0 7
-5 11 -12z m-15 -55 c-8 -15 -10 -15 -11 -2 0 17 10 32 18 25 2 -3 -1 -13 -7
-23z m-2435 -918 c12 -9 14 -14 6 -15 -7 0 -20 7 -28 15 -20 19 -4 20 22 0z
m131 -101 c-3 -3 -12 -4 -19 -1 -8 3 -5 6 6 6 11 1 17 -2 13 -5z m452 -219 c0
-5 -4 -3 -9 5 -5 8 -9 22 -9 30 0 16 17 -16 18 -35z m611 35 c0 -5 -5 -10 -11
-10 -5 0 -7 5 -4 10 3 6 8 10 11 10 2 0 4 -4 4 -10z m-27 -43 c-4 -6 -9 -3
-14 9 -5 11 -8 13 -8 5 -1 -8 -4 -12 -7 -8 -3 3 -3 11 1 17 5 8 11 8 21 -1 7
-6 11 -16 7 -22z m-586 -119 c-3 -7 -5 -2 -5 12 0 14 2 19 5 13 2 -7 2 -19 0
-25z"/>
<path d="M4430 5470 c0 -21 16 -44 23 -33 4 6 0 19 -8 29 -11 15 -14 16 -15 4z"/>
<path d="M4416 5440 c7 -38 11 -46 20 -38 3 3 -2 21 -10 39 l-16 34 6 -35z"/>
<path d="M4252 5595 c0 -16 2 -22 5 -12 2 9 2 23 0 30 -3 6 -5 -1 -5 -18z"/>
<path d="M5931 5414 c0 -11 3 -14 6 -6 3 7 2 16 -1 19 -3 4 -6 -2 -5 -13z"/>
<path d="M5010 5415 c-7 -9 -11 -17 -9 -20 3 -2 10 5 17 15 14 24 10 26 -8 5z"/>
<path d="M4962 5330 c-18 -29 -15 -38 4 -12 9 13 14 25 12 27 -2 2 -9 -5 -16
-15z"/>
<path d="M4816 5063 c-6 -14 -5 -15 5 -6 7 7 10 15 7 18 -3 3 -9 -2 -12 -12z"/>
<path d="M4777 4987 c-3 -8 1 -14 8 -14 7 0 11 6 8 14 -3 7 -6 13 -8 13 -2 0
-5 -6 -8 -13z"/>
<path d="M5751 4824 c0 -11 3 -14 6 -6 3 7 2 16 -1 19 -3 4 -6 -2 -5 -13z"/>
<path d="M5781 4584 c0 -11 3 -14 6 -6 3 7 2 16 -1 19 -3 4 -6 -2 -5 -13z"/>
<path d="M5636 3837 c3 -10 9 -15 12 -12 3 3 0 11 -7 18 -10 9 -11 8 -5 -6z"/>
<path d="M5852 3795 c0 -16 2 -22 5 -12 2 9 2 23 0 30 -3 6 -5 -1 -5 -18z"/>
<path d="M5830 3679 c0 -5 5 -7 10 -4 6 3 10 8 10 11 0 2 -4 4 -10 4 -5 0 -10
-5 -10 -11z"/>
<path d="M3200 5806 c0 -2 7 -9 15 -16 9 -7 15 -8 15 -2 0 5 -7 12 -15 16 -8
3 -15 4 -15 2z"/>
<path d="M3620 5404 c0 -11 85 -113 99 -119 16 -6 7 5 -61 82 -21 24 -38 40
-38 37z"/>
<path d="M3460 5290 c11 -22 23 -40 25 -40 3 0 -4 18 -15 40 -11 22 -23 40
-25 40 -3 0 4 -18 15 -40z"/>
<path d="M3759 5235 c5 -11 17 -29 26 -40 l16 -20 -10 20 c-5 11 -17 29 -26
40 l-16 20 10 -20z"/>
<path d="M3820 5151 c5 -11 15 -23 21 -27 6 -3 3 5 -6 20 -20 30 -30 35 -15 7z"/>
<path d="M3560 5102 c0 -18 30 -81 41 -88 5 -3 4 7 -3 23 -24 55 -38 78 -38
65z"/>
<path d="M3867 5080 c9 -16 21 -30 26 -30 5 0 -1 14 -13 30 -12 17 -24 30 -26
30 -3 0 3 -13 13 -30z"/>
<path d="M3610 4995 c0 -5 5 -17 10 -25 5 -8 10 -10 10 -5 0 6 -5 17 -10 25
-5 8 -10 11 -10 5z"/>
<path d="M3220 4306 c0 -2 8 -10 18 -17 15 -13 16 -12 3 4 -13 16 -21 21 -21
13z"/>
<path d="M3265 4230 c3 -5 8 -10 11 -10 2 0 4 5 4 10 0 6 -5 10 -11 10 -5 0
-7 -4 -4 -10z"/>
<path d="M6701 4854 c0 -11 3 -14 6 -6 3 7 2 16 -1 19 -3 4 -6 -2 -5 -13z"/>
<path d="M6691 4814 c0 -11 3 -14 6 -6 3 7 2 16 -1 19 -3 4 -6 -2 -5 -13z"/>
<path d="M6386 3515 c-3 -9 -6 -24 -5 -33 0 -9 5 -4 10 12 9 32 6 48 -5 21z"/>
<path d="M6141 3114 c0 -11 3 -14 6 -6 3 7 2 16 -1 19 -3 4 -6 -2 -5 -13z"/>
<path d="M6040 2911 c0 -5 5 -13 10 -16 6 -3 10 -2 10 4 0 5 -4 13 -10 16 -5
3 -10 2 -10 -4z"/>
<path d="M1905 4845 c41 -53 74 -84 90 -85 5 0 -2 8 -15 17 -14 9 -29 23 -34
32 -5 8 -25 31 -44 50 l-35 36 38 -50z"/>
<path d="M2160 4395 c0 -5 5 -17 10 -25 5 -8 10 -10 10 -5 0 6 -5 17 -10 25
-5 8 -10 11 -10 5z"/>
<path d="M2200 4302 c0 -18 12 -42 21 -42 14 0 11 20 -6 36 -8 9 -15 11 -15 6z"/>
<path d="M2260 4230 c6 -11 13 -20 16 -20 2 0 0 9 -6 20 -6 11 -13 20 -16 20
-2 0 0 -9 6 -20z"/>
<path d="M2327 3920 c3 -11 7 -20 9 -20 2 0 4 9 4 20 0 11 -4 20 -9 20 -5 0
-7 -9 -4 -20z"/>
<path d="M3899 4393 c-13 -16 -12 -17 4 -4 16 13 21 21 13 21 -2 0 -10 -8 -17
-17z"/>
<path d="M4411 4394 c0 -11 3 -14 6 -6 3 7 2 16 -1 19 -3 4 -6 -2 -5 -13z"/>
<path d="M4324 4275 c0 -49 1 -71 3 -48 2 23 2 64 0 90 -2 26 -3 8 -3 -42z"/>
<path d="M3833 4320 c-24 -30 -32 -51 -10 -28 35 39 49 58 41 57 -5 0 -19 -13
-31 -29z"/>
<path d="M3769 4243 l-24 -28 28 24 c25 23 32 31 24 31 -2 0 -14 -12 -28 -27z"/>
<path d="M3819 4253 c-13 -16 -12 -17 4 -4 16 13 21 21 13 21 -2 0 -10 -8 -17
-17z"/>
<path d="M3769 4183 c-13 -16 -12 -17 4 -4 16 13 21 21 13 21 -2 0 -10 -8 -17
-17z"/>
<path d="M4324 4080 c0 -52 1 -74 3 -47 2 26 2 68 0 95 -2 26 -3 4 -3 -48z"/>
<path d="M4990 4135 c13 -14 26 -25 28 -25 3 0 -5 11 -18 25 -13 14 -26 25
-28 25 -3 0 5 -11 18 -25z"/>
<path d="M5030 4093 c1 -12 49 -68 54 -63 2 3 -9 20 -25 38 -16 18 -29 29 -29
25z"/>
<path d="M5107 3994 c11 -16 31 -38 44 -49 16 -14 13 -6 -10 22 -38 49 -65 71
-34 27z"/>
<path d="M3522 3933 c-27 -38 -76 -102 -107 -143 -81 -107 -111 -154 -197
-310 -16 -30 -16 -31 -1 -10 10 13 38 51 63 85 24 33 43 66 42 72 -2 7 3 10
11 7 9 -3 24 8 38 28 12 18 43 58 68 88 80 96 112 140 103 140 -6 0 -13 -8
-16 -17 -5 -12 -10 -13 -17 -6 -8 8 -4 21 14 45 34 47 60 88 54 88 -2 0 -27
-30 -55 -67z m-32 -106 c-11 -18 -40 -54 -65 -81 -25 -27 -45 -52 -45 -55 -1
-8 -37 -51 -43 -51 -9 0 42 86 68 114 13 14 21 26 18 26 -3 0 2 9 12 20 10 11
22 17 28 13 6 -4 7 -1 3 6 -9 14 22 53 35 45 4 -2 -1 -19 -11 -37z"/>
<path d="M3553 3913 c0 -9 4 -10 14 -2 7 6 13 12 13 14 0 1 -6 2 -13 2 -8 0
-14 -6 -14 -14z"/>
<path d="M5189 3902 c6 -12 16 -24 22 -28 8 -4 8 -1 0 14 -6 12 -16 24 -22 28
-8 4 -8 1 0 -14z"/>
<path d="M5230 3855 c0 -2 6 -8 13 -14 10 -8 14 -7 14 2 0 8 -6 14 -14 14 -7
0 -13 -1 -13 -2z"/>
<path d="M5280 3801 c5 -11 15 -23 21 -27 6 -3 3 5 -6 20 -20 30 -30 35 -15 7z"/>
<path d="M3746 3558 l-18 -33 21 25 c18 22 26 40 18 40 -1 0 -11 -15 -21 -32z"/>
<path d="M3681 3437 c-8 -12 -21 -33 -30 -47 -15 -23 -15 -24 1 -11 17 13 51
71 45 77 -1 2 -9 -7 -16 -19z"/>
<path d="M4443 3385 c0 -38 2 -53 4 -32 2 20 2 52 0 70 -2 17 -4 1 -4 -38z"/>
<path d="M3605 3309 c-4 -6 -5 -12 -2 -15 2 -3 7 2 10 11 7 17 1 20 -8 4z"/>
<path d="M3582 3260 c-17 -27 -15 -35 4 -16 8 9 14 21 12 26 -2 6 -9 1 -16
-10z"/>
<path d="M3550 3208 c0 -3 -7 -22 -15 -41 -12 -28 -12 -37 -2 -43 6 -4 9 -4 5
0 -3 4 0 24 8 43 9 19 13 38 10 41 -3 3 -6 3 -6 0z"/>
<path d="M4451 3134 c0 -11 3 -14 6 -6 3 7 2 16 -1 19 -3 4 -6 -2 -5 -13z"/>
<path d="M4112 3030 c0 -14 2 -19 5 -12 2 6 2 18 0 25 -3 6 -5 1 -5 -13z"/>
<path d="M4101 2954 c0 -11 3 -14 6 -6 3 7 2 16 -1 19 -3 4 -6 -2 -5 -13z"/>
<path d="M3467 2896 c-4 -10 -5 -21 -2 -24 9 -9 17 6 13 25 -3 17 -4 17 -11
-1z"/>
<path d="M4064 2410 c-5 -44 -6 -80 -2 -80 4 0 9 17 11 38 2 20 3 11 2 -20 -2
-32 1 -58 5 -58 5 0 11 -10 13 -22 2 -13 5 32 6 100 1 95 -2 122 -12 122 -9 0
-16 -25 -23 -80z"/>
<path d="M4453 2425 c0 -38 2 -53 4 -32 2 20 2 52 0 70 -2 17 -4 1 -4 -38z"/>
<path d="M5286 2335 c-3 -9 -6 -30 -6 -46 0 -18 -4 -28 -10 -24 -5 3 -10 2
-10 -3 0 -6 6 -12 14 -15 11 -4 15 7 18 46 5 58 3 66 -6 42z"/>
<path d="M4051 2304 c0 -11 3 -14 6 -6 3 7 2 16 -1 19 -3 4 -6 -2 -5 -13z"/>
<path d="M3655 2300 c3 -5 11 -10 16 -10 6 0 7 5 4 10 -3 6 -11 10 -16 10 -6
0 -7 -4 -4 -10z"/>
<path d="M3700 2260 c0 -5 5 -10 11 -10 5 0 7 5 4 10 -3 6 -8 10 -11 10 -2 0
-4 -4 -4 -10z"/>
<path d="M4068 2263 c-2 -5 -1 -28 3 -53 l6 -45 1 53 c2 48 -2 63 -10 45z"/>
<path d="M5266 2205 c4 -22 3 -36 -2 -32 -5 2 -10 -16 -11 -42 -2 -36 0 -42 8
-28 17 29 23 123 10 132 -9 5 -10 -3 -5 -30z"/>
<path d="M3903 2188 c2 -7 16 -13 32 -13 16 0 30 6 33 13 2 8 -8 12 -33 12
-25 0 -35 -4 -32 -12z"/>
<path d="M4919 1733 c-9 -54 4 -68 41 -42 12 8 10 9 -7 4 -17 -5 -20 -2 -16
13 2 11 0 23 -6 26 -6 4 -12 4 -12 -1z"/>
<path d="M4865 1670 c3 -5 13 -10 21 -10 8 0 12 5 9 10 -3 6 -13 10 -21 10 -8
0 -12 -4 -9 -10z"/>
</g>
</svg>
